<svg xmlns="http://www.w3.org/2000/svg" width="16.457" height="16.457"><switch><g><path d="M12.045 9.074l-2.143 2.143a16.646 16.646 0 01-2.58-2.124A16.723 16.723 0 015.23 6.561l2.151-2.15L2.969 0 .755 2.213C.253 2.716 0 3.421 0 4.278c0 .692.165 1.484.495 2.35.692 1.812 2.041 3.777 3.798 5.534 1.736 1.736 3.681 3.076 5.477 3.775 1.915.745 3.48.683 4.407-.173l.014-.013 2.266-2.265-4.412-4.412zM2.969 1.372l3.04 3.039-.945.944-3.04-3.039.945-.944zm7.153 13.661c-1.673-.651-3.5-1.915-5.143-3.557-1.662-1.662-2.933-3.507-3.577-5.194C.847 4.83.829 3.65 1.345 3.008l3.034 3.033-.386.385.206.328a17.45 17.45 0 002.437 3.025 17.417 17.417 0 003.076 2.469l.327.204.375-.375 3.035 3.035c-.649.52-1.853.494-3.327-.079zm4.018-.603l-3.04-3.04.945-.945 3.04 3.039-.945.946z" fill-rule="evenodd" clip-rule="evenodd" fill="#ff5100"></path></g></switch></svg>